<svg id="Group_15255" data-name="Group 15255" xmlns="http://www.w3.org/2000/svg" xmlns:xlink="http://www.w3.org/1999/xlink" width="164.848" height="42.904" viewBox="0 0 164.848 42.904">
  <defs>
    <clipPath id="clip-path">
      <rect id="Rectangle_6624" data-name="Rectangle 6624" width="164.848" height="42.904" fill="none"/>
    </clipPath>
  </defs>
  <path id="Path_43353" data-name="Path 43353" d="M48.725,19.906l3.523,8.121,3.539-8.121Z" transform="translate(-32.428 -13.248)" fill="#7a97ab"/>
  <path id="Path_43354" data-name="Path 43354" d="M60.313,46.906l3.9,8.9,3.915-8.9Z" transform="translate(-40.14 -31.218)" fill="#215273"/>
  <path id="Path_43355" data-name="Path 43355" d="M80.2,14.465,74.658,1.678,69.085,14.465Z" transform="translate(-45.978 -1.117)" fill="#00a398"/>
  <path id="Path_43356" data-name="Path 43356" d="M51.584,0,49.651,4.436h3.857Z" transform="translate(-33.044 0)" fill="#66c8c1"/>
  <g id="Group_15254" data-name="Group 15254">
    <g id="Group_15253" data-name="Group 15253" clip-path="url(#clip-path)">
      <path id="Path_43357" data-name="Path 43357" d="M140.346,61.915c0,5.883-5.121,8.716-10.95,8.716-5.448,0-9.479-2.288-11.44-6.483l6.1-3.432a5.189,5.189,0,0,0,5.339,3.541c2.234,0,3.759-.763,3.759-2.342,0-3.977-14.055-1.8-14.055-11.386,0-5.557,4.739-8.662,10.351-8.662A11.472,11.472,0,0,1,139.8,47.642l-5.993,3.269a4.607,4.607,0,0,0-4.358-2.778c-1.743,0-3.16.763-3.16,2.234,0,4.031,14.055,1.525,14.055,11.549" transform="translate(-78.503 -27.864)" fill="#215273"/>
      <path id="Path_43358" data-name="Path 43358" d="M214.231,61.915c0,5.883-5.121,8.716-10.95,8.716-5.448,0-9.479-2.288-11.441-6.483l6.1-3.432a5.189,5.189,0,0,0,5.339,3.541c2.233,0,3.759-.763,3.759-2.342,0-3.977-14.055-1.8-14.055-11.386,0-5.557,4.739-8.662,10.351-8.662a11.473,11.473,0,0,1,10.351,5.775l-5.993,3.269a4.607,4.607,0,0,0-4.358-2.778c-1.743,0-3.16.763-3.16,2.234,0,4.031,14.055,1.525,14.055,11.549" transform="translate(-127.676 -27.864)" fill="#215273"/>
      <path id="Path_43359" data-name="Path 43359" d="M280.763,64.665a7.55,7.55,0,0,0,6.1-2.724l5.666,3.268c-2.56,3.7-6.646,5.829-11.876,5.829-9.152,0-14.927-6.265-14.927-14.382s5.829-14.382,14.382-14.382c8.063,0,13.783,6.374,13.783,14.382a16.227,16.227,0,0,1-.273,2.887H273.081c.981,3.6,3.977,5.121,7.681,5.121m6.1-10.807a6.608,6.608,0,0,0-6.755-5.5c-3.759,0-6.319,2.016-7.136,5.5Z" transform="translate(-176.849 -28.135)" fill="#215273"/>
      <path id="Path_43360" data-name="Path 43360" d="M27.921,39.365,24.1,48.149H13.08l5.48-12.6-3.874-8.885L5.367,48.149,2.652,54.41,0,60.525H7.841l2.643-6.02H26.626l2.589,6.02h7.906Z" transform="translate(0 -17.744)" fill="#215273"/>
      <path id="Path_43361" data-name="Path 43361" d="M382.281,55.854V72.489h-7.024V56.666c0-3.7-2.231-5.6-5.387-5.6-3.428,0-5.985,2.012-5.985,6.743V72.489h-7.024V45.4h7.024v3.034c1.633-2.439,4.463-3.793,8.109-3.793,5.769,0,10.287,4.01,10.287,11.216" transform="translate(-237.501 -29.708)" fill="#215273"/>
      <path id="Path_43362" data-name="Path 43362" d="M451.567,37.449V48.669c0,2.913,2.078,2.967,6.02,2.751v6.494c-9.756,1.078-13.044-1.779-13.044-9.055V37.449h-4.683V30.759h4.683V25.268l7.024-2.121v7.612h6.02v6.689Z" transform="translate(-292.74 -15.405)" fill="#215273"/>
    </g>
  </g>
</svg>
