<svg preserveAspectRatio="none" width="100%" height="100%" overflow="visible" style="display: block;" viewBox="0 0 21 21" fill="none" xmlns="http://www.w3.org/2000/svg">
<g id="Vector">
<path d="M6.94443 2.77777L8.46789 6.38889L9.99999 2.77777H6.94443Z" fill="var(--fill-0, #2A2B2C)"/>
<path d="M8.61099 6.94444L10.4119 10.8333L12.2221 6.94444H8.61099Z" fill="var(--fill-0, #2A2B2C)"/>
<path d="M14.7223 5.83334L12.3668 0.277781L10 5.83334H14.7223Z" fill="var(--fill-0, #2A2B2C)"/>
<path d="M8.88877 1.94444L8.05835 0L7.2221 1.94444H8.88877Z" fill="var(--fill-0, #2A2B2C)"/>
<path d="M12.1174 9.41155L10.4602 13.2309H5.67706L8.05556 7.75184L6.37364 3.88889L0 18.6111H3.40304L4.55094 15.9937H11.5558L12.6791 18.6111H16.1111L12.1174 9.41155Z" fill="var(--fill-0, #2A2B2C)"/>
<path d="M17.9733 18.1194C17.801 18.6074 17.738 18.9465 17.7844 19.1366C17.8308 19.3268 17.9369 19.4218 18.1026 19.4218C18.2086 19.4218 18.318 19.3901 18.4307 19.3268C18.55 19.257 18.6959 19.1398 18.8682 18.975C18.9809 18.8736 19.0704 18.8134 19.1367 18.7944C19.2096 18.769 19.2792 18.7722 19.3455 18.8039C19.4316 18.8419 19.4747 18.9148 19.4747 19.0225C19.4747 19.1303 19.4316 19.2665 19.3455 19.4313C19.0803 19.9004 18.6925 20.2806 18.1821 20.5722C17.6783 20.8574 17.095 21 16.4321 21C15.9549 21 15.5969 20.9049 15.3583 20.7148C15.1263 20.5246 15.007 20.2521 15.0003 19.8972C14.9937 19.5359 15.0832 19.1018 15.2688 18.5947L16.7106 14.7729C16.8895 14.2912 16.9558 13.9553 16.9094 13.7651C16.863 13.5687 16.757 13.4704 16.5912 13.4704C16.4918 13.4704 16.3791 13.5053 16.2532 13.575C16.1339 13.6384 15.9847 13.7556 15.8057 13.9268C15.6997 14.0155 15.6102 14.0725 15.5373 14.0979C15.4644 14.1232 15.3948 14.1201 15.3285 14.0884C15.2489 14.0504 15.2058 13.9806 15.1992 13.8792C15.1992 13.7715 15.2423 13.6384 15.3285 13.4799C15.6135 12.9919 16.0079 12.6021 16.5117 12.3106C17.0221 12.0127 17.5922 11.8637 18.2219 11.8637C18.6528 11.8637 18.9875 11.9588 19.2262 12.1489C19.4648 12.3391 19.5974 12.618 19.6239 12.9856C19.657 13.3532 19.5708 13.8095 19.3654 14.3546L17.9733 18.1194ZM18.8583 10.3996C18.3744 10.3996 18.0032 10.2824 17.7446 10.0479C17.4861 9.80704 17.3701 9.51866 17.3966 9.18275C17.4099 8.89754 17.506 8.62817 17.685 8.37465C17.8706 8.11479 18.1225 7.90563 18.4407 7.74718C18.7588 7.58239 19.1267 7.5 19.5443 7.5C20.0614 7.5 20.4392 7.62042 20.6778 7.86127C20.9165 8.10211 21.0225 8.39366 20.996 8.73592C20.9828 9.04014 20.8833 9.31901 20.6977 9.57254C20.5188 9.82606 20.2702 10.0289 19.952 10.181C19.6404 10.3268 19.2759 10.3996 18.8583 10.3996Z" fill="var(--fill-0, #2A2B2C)"/>
</g>
</svg>
