<svg xmlns="http://www.w3.org/2000/svg" width="198" height="44" viewBox="0 0 198 44" role="img" aria-labelledby="title">
  <title id="title">OneSchema</title>
  <defs>
    <linearGradient id="oneschema-gradient" x1="5" y1="37" x2="38" y2="7" gradientUnits="userSpaceOnUse">
      <stop offset="0" stop-color="#00dac6"/>
      <stop offset="0.5" stop-color="#0097df"/>
      <stop offset="1" stop-color="#133df6"/>
    </linearGradient>
  </defs>
  <path fill="url(#oneschema-gradient)" d="M14.7 33.7c-5.7 0-10.3-4.6-10.3-10.3 0-3.7 2-7.1 5.2-8.9L31.3 2l5.2 9-21.7 12.5c-.4.2-.6.6-.6 1 0 .7.5 1.2 1.2 1.2h14.2c5.7 0 10.3 4.6 10.3 10.3 0 3.7-2 7.1-5.2 8.9L13 57.4l-5.2-9 21.7-12.5c.4-.2.6-.6.6-1 0-.7-.5-1.2-1.2-1.2H14.7Z" transform="translate(0 -2) scale(.78)"/>
  <path fill="url(#oneschema-gradient)" d="M22.7 8.6 31.3 2l11.4 19.8-9 5.2L22.7 8.6Zm-1.4 33.8 9-5.2 11.4 19.8-8.6 6.6-11.8-21.2Z" transform="translate(0 -2) scale(.78)"/>
  <text x="49" y="20" fill="#1d252d" font-family="Roboto, Arial, sans-serif" font-size="15" font-weight="700">one</text>
  <text x="49" y="36" fill="#1d252d" font-family="Roboto, Arial, sans-serif" font-size="15" font-weight="700">schema</text>
</svg>
